# xmcd CD database file
#
# Track frame offsets:
#	150
#	19975
#	38527
#	60042
#	80677
#	115965
#	149397
#	170987
#	206935
#	224422
#	244245
#	266165
#
# Disc length: 4017 seconds
#
# Revision: 0
# Processed by: cddbd v1.5.1PL2 Copyright (c) Steve Scherf et al.
# Submitted via: CDex 1.51
#
DISCID=b70faf0c
DTITLE=東京佼成ウインドオーケストラ - NEW SOUNDS IN BRASS STANDARDS 10 J-POP&FUSION
DYEAR=1900
DGENRE=クラシック (一般)
TTITLE0=オーメンズ・オブ・ラヴ
TTITLE1=宝島
TTITLE2=ハレ
TTITLE3=ハイ・プレッシャー
TTITLE4=松田聖子メドレー
TTITLE5=杏里メドレー
TTITLE6=今井美紀メドレー
TTITLE7=メドレー（CHAGE&ASKAのヒット・ソングより）
TTITLE8=トゥルース
TTITLE9=グッド・イヴニング
TTITLE10=ベイ・ブリーズ
TTITLE11=ユーミン・ポートレート
EXTD=
EXTT0=
EXTT1=
EXTT2=
EXTT3=
EXTT4=
EXTT5=
EXTT6=
EXTT7=
EXTT8=
EXTT9=
EXTT10=
EXTT11=
PLAYORDER=
